<svg width="104" height="104" viewBox="0 0 104 104" fill="none" xmlns="http://www.w3.org/2000/svg">
<path d="M71.75 38.1562C72.6875 39.0938 72.6875 40.5 71.75 41.3438L47 66.0938C46.1562 67.0312 44.75 67.0312 43.9062 66.0938L31.1562 53.3438C30.2188 52.5 30.2188 51.0938 31.1562 50.1562C32 49.3125 33.4062 49.3125 34.25 50.1562L45.5 61.4062L68.6562 38.1562C69.5 37.3125 70.9062 37.3125 71.75 38.1562Z" fill="#00E594"/>
<path fill-rule="evenodd" clip-rule="evenodd" d="M15.5 5C9.70101 5 5 9.70101 5 15.5V28.5C5 29.8807 3.88071 31 2.5 31C1.11929 31 0 29.8807 0 28.5V15.5C0 6.93959 6.93959 0 15.5 0H28.5C29.8807 0 31 1.11929 31 2.5C31 3.88071 29.8807 5 28.5 5H15.5Z" fill="#00E594"/>
<path fill-rule="evenodd" clip-rule="evenodd" d="M15.5 99C9.70101 99 5 94.299 5 88.5V75.5C5 74.1193 3.88071 73 2.5 73C1.11929 73 0 74.1193 0 75.5V88.5C0 97.0604 6.93959 104 15.5 104H28.5C29.8807 104 31 102.881 31 101.5C31 100.119 29.8807 99 28.5 99H15.5Z" fill="#00E594"/>
<path fill-rule="evenodd" clip-rule="evenodd" d="M88 5.5C93.799 5.5 98.5 10.201 98.5 16V29C98.5 30.3807 99.6193 31.5 101 31.5C102.381 31.5 103.5 30.3807 103.5 29V16C103.5 7.43959 96.5604 0.5 88 0.5H75C73.6193 0.5 72.5 1.61929 72.5 3C72.5 4.38071 73.6193 5.5 75 5.5H88Z" fill="#00E594"/>
<path fill-rule="evenodd" clip-rule="evenodd" d="M88 98.5C93.799 98.5 98.5 93.799 98.5 88V75C98.5 73.6193 99.6193 72.5 101 72.5C102.381 72.5 103.5 73.6193 103.5 75V88C103.5 96.5604 96.5604 103.5 88 103.5H75C73.6193 103.5 72.5 102.381 72.5 101C72.5 99.6193 73.6193 98.5 75 98.5H88Z" fill="#00E594"/>
</svg>
