<svg width="104" height="104" viewBox="0 0 104 104" fill="none" xmlns="http://www.w3.org/2000/svg">
<path fill-rule="evenodd" clip-rule="evenodd" d="M5 15.5C5 9.70117 9.70105 5 15.5 5H28.5C29.8807 5 31 3.88086 31 2.5C31 1.11914 29.8807 0 28.5 0H15.5C6.93958 0 0 6.93945 0 15.5V28.5C0 29.8809 1.11926 31 2.5 31C3.88074 31 5 29.8809 5 28.5V15.5ZM5 88.5C5 94.2988 9.70105 99 15.5 99H28.5C29.8807 99 31 100.119 31 101.5C31 102.881 29.8807 104 28.5 104H15.5C6.93958 104 0 97.0605 0 88.5V75.5C0 74.1191 1.11926 73 2.5 73C3.88074 73 5 74.1191 5 75.5V88.5ZM88 5.5C93.799 5.5 98.5 10.2012 98.5 16V29C98.5 30.3809 99.6193 31.5 101 31.5C102.381 31.5 103.5 30.3809 103.5 29V16C103.5 7.43945 96.5604 0.5 88 0.5H75C73.6193 0.5 72.5 1.61914 72.5 3C72.5 4.38086 73.6193 5.5 75 5.5H88ZM98.5 88C98.5 93.7988 93.799 98.5 88 98.5H75C73.6193 98.5 72.5 99.6191 72.5 101C72.5 102.381 73.6193 103.5 75 103.5H88C96.5604 103.5 103.5 96.5605 103.5 88V75C103.5 73.6191 102.381 72.5 101 72.5C99.6193 72.5 98.5 73.6191 98.5 75V88ZM30.6404 34.1758C29.6641 33.1992 29.6641 31.6172 30.6404 30.6406C31.6166 29.6641 33.1996 29.6641 34.1759 30.6406L51.5 47.9648L68.8241 30.6406C69.8004 29.665 71.3833 29.665 72.3596 30.6406C73.3359 31.6172 73.3359 33.2002 72.3596 34.1768L55.0359 51.5L72.3596 68.8242C73.3359 69.8008 73.3359 71.3838 72.3596 72.3594C71.3833 73.3359 69.8004 73.3359 68.8241 72.3594L51.5005 55.0361L34.1759 72.3604C33.1996 73.3369 31.6166 73.3369 30.6403 72.3604C29.6641 71.3838 29.6641 69.8008 30.6403 68.8242L47.9646 51.5L30.6404 34.1758Z" fill="#C20000"/>
</svg>
