<svg width="28" height="28" viewBox="0 0 28 28" fill="none" xmlns="http://www.w3.org/2000/svg">
<path d="M2 4.625C2 3.21875 3.17188 2 4.625 2H8.375C8.98438 2 9.5 2.51562 9.5 3.125C9.5 3.78125 8.98438 4.25 8.375 4.25H4.625C4.39062 4.25 4.25 4.4375 4.25 4.625V8.375C4.25 9.03125 3.73438 9.5 3.125 9.5C2.46875 9.5 2 9.03125 2 8.375V4.625ZM18.5 3.125C18.5 2.51562 18.9688 2 19.625 2H23.375C24.7812 2 26 3.21875 26 4.625V8.375C26 9.03125 25.4844 9.5 24.875 9.5C24.2188 9.5 23.75 9.03125 23.75 8.375V4.625C23.75 4.4375 23.5625 4.25 23.375 4.25H19.625C18.9688 4.25 18.5 3.78125 18.5 3.125ZM3.125 18.5C3.73438 18.5 4.25 19.0156 4.25 19.625V23.375C4.25 23.6094 4.39062 23.75 4.625 23.75H8.375C8.98438 23.75 9.5 24.2656 9.5 24.875C9.5 25.5312 8.98438 26 8.375 26H4.625C3.17188 26 2 24.8281 2 23.375V19.625C2 19.0156 2.46875 18.5 3.125 18.5ZM24.875 18.5C25.4844 18.5 26 19.0156 26 19.625V23.375C26 24.8281 24.7812 26 23.375 26H19.625C18.9688 26 18.5 25.5312 18.5 24.875C18.5 24.2656 18.9688 23.75 19.625 23.75H23.375C23.5625 23.75 23.75 23.6094 23.75 23.375V19.625C23.75 19.0156 24.2188 18.5 24.875 18.5ZM13.25 12.125C13.25 12.7812 12.7344 13.25 12.125 13.25C11.4688 13.25 11 12.7812 11 12.125C11 11.5156 11.4688 11 12.125 11C12.7344 11 13.25 11.5156 13.25 12.125ZM15.875 13.25C15.2188 13.25 14.75 12.7812 14.75 12.125C14.75 11.5156 15.2188 11 15.875 11C16.4844 11 17 11.5156 17 12.125C17 12.7812 16.4844 13.25 15.875 13.25ZM14 8.75C12.0781 8.75 10.3906 9.78125 9.45312 11.375C8.46875 13.0156 8.46875 15.0312 9.45312 16.625C10.3906 18.2656 12.0781 19.25 14 19.25C15.875 19.25 17.5625 18.2656 18.5 16.625C19.4844 15.0312 19.4844 13.0156 18.5 11.375C17.5625 9.78125 15.875 8.75 14 8.75ZM14 21.5C11.2812 21.5 8.84375 20.0938 7.48438 17.75C6.125 15.4531 6.125 12.5938 7.48438 10.25C8.84375 7.95312 11.2812 6.5 14 6.5C16.6719 6.5 19.1094 7.95312 20.4688 10.25C21.8281 12.5938 21.8281 15.4531 20.4688 17.75C19.1094 20.0938 16.6719 21.5 14 21.5ZM12.0312 15.125C12.4062 15.8281 13.1562 16.25 14 16.25C14.7969 16.25 15.5469 15.8281 15.9219 15.125C16.1562 14.7969 16.5781 14.6562 16.9531 14.8906C17.3281 15.0781 17.4219 15.5469 17.2344 15.9219C16.5781 17 15.3594 17.7969 14 17.7969C12.5938 17.7969 11.375 17 10.7188 15.9219C10.5312 15.5469 10.625 15.0781 11 14.8906C11.375 14.6562 11.8438 14.7969 12.0312 15.125Z" fill="#414141"/>
</svg>
