<svg width="28" height="28" viewBox="0 0 28 28" fill="none" xmlns="http://www.w3.org/2000/svg">
<path d="M6.03125 5.75C5.51562 5.75 5.04688 6.125 4.90625 6.6875L3.17188 14.1875C4.34375 13.8125 5.60938 13.625 6.82812 13.625C8.70312 13.625 10.6719 14.0938 12.4062 14.9375C12.6875 15.0781 12.875 15.2656 13.0156 15.5H14.9375C15.0781 15.2656 15.3125 15.0781 15.5469 14.9375C17.2812 14.0938 19.25 13.625 21.125 13.625C22.3438 13.625 23.6094 13.8594 24.7812 14.1875L23.0469 6.6875C22.9062 6.125 22.4375 5.75 21.9219 5.75C21.7812 5.75 21.6406 5.79688 21.5 5.84375L20 6.45312C19.4375 6.6875 18.7812 6.40625 18.5469 5.79688C18.3125 5.23438 18.5938 4.57812 19.2031 4.34375L20.6562 3.78125C21.0781 3.59375 21.5 3.5 21.9219 3.5C23.5156 3.5 24.875 4.625 25.25 6.17188L27.3125 14.9844C27.3594 15.3125 27.4531 15.6406 27.4531 16.0156C27.4531 16.1094 27.5 16.2031 27.5 16.25V16.5312V16.5781V18.5C27.5 18.5469 27.5 18.5469 27.5 18.5469V19.25C27.5 22.1562 25.1562 24.5 22.25 24.5H20.1406C17.375 24.5 15.0781 22.3438 14.8906 19.5781L14.8438 18.5H13.1094L13.0625 19.5781C12.875 22.3438 10.5781 24.5 7.8125 24.5H5.75C2.84375 24.5 0.5 22.1562 0.5 19.25V18.5V16.5781V16.25C0.5 16.2031 0.5 16.1094 0.5 16.0156C0.546875 15.6406 0.59375 15.3125 0.6875 14.9844L2.70312 6.17188C3.07812 4.625 4.4375 3.5 6.03125 3.5C6.45312 3.5 6.92188 3.59375 7.29688 3.78125L8.75 4.34375C9.35938 4.57812 9.64062 5.23438 9.40625 5.79688C9.17188 6.40625 8.51562 6.6875 7.95312 6.45312L6.45312 5.84375C6.3125 5.79688 6.17188 5.75 6.03125 5.75ZM2.75 18.5V19.25C2.75 20.9375 4.0625 22.25 5.75 22.25H7.8125C9.40625 22.25 10.7188 21.0312 10.8125 19.4375L10.9531 16.7188C9.6875 16.2031 8.23438 15.875 6.82812 15.875C5.46875 15.875 4.01562 16.2031 2.75 16.7656V18.5ZM21.125 15.875C19.7188 15.875 18.2656 16.2031 17 16.7188L17.1406 19.4375C17.2344 21.0312 18.5469 22.25 20.1406 22.25H22.25C23.8906 22.25 25.25 20.9375 25.25 19.25V16.7656C23.9375 16.2031 22.4844 15.875 21.125 15.875Z" fill="#414141"/>
</svg>
