<svg width="28" height="28" viewBox="0 0 28 28" fill="none" xmlns="http://www.w3.org/2000/svg">
<path d="M14 26C7.34375 26 2 20.6562 2 14C2 7.39062 7.34375 2 14 2C20.6094 2 26 7.39062 26 14C26 20.6562 20.6094 26 14 26ZM10.2031 10.2031C9.73438 10.6719 9.73438 11.375 10.2031 11.7969L12.4062 14L10.2031 16.2031C9.73438 16.6719 9.73438 17.375 10.2031 17.7969C10.625 18.2656 11.3281 18.2656 11.75 17.7969L13.9531 15.5938L16.1562 17.7969C16.625 18.2656 17.3281 18.2656 17.75 17.7969C18.2188 17.375 18.2188 16.6719 17.75 16.2031L15.5469 14L17.75 11.7969C18.2188 11.375 18.2188 10.6719 17.75 10.2031C17.3281 9.78125 16.625 9.78125 16.1562 10.2031L13.9531 12.4062L11.75 10.2031C11.3281 9.78125 10.625 9.78125 10.2031 10.2031Z" fill="#C20000"/>
</svg>
