<svg width="28" height="28" viewBox="0 0 28 28" fill="none" xmlns="http://www.w3.org/2000/svg">
<path d="M12.875 6.125V3.125C12.875 2.51562 13.3438 2 14 2C14.6094 2 15.125 2.51562 15.125 3.125V6.125C15.125 6.78125 14.6094 7.25 14 7.25C13.3438 7.25 12.875 6.78125 12.875 6.125ZM14 11.75C13.1562 11.75 12.4531 12.2188 12.0312 12.875C11.6094 13.5781 11.6094 14.4688 12.0312 15.125C12.4531 15.8281 13.1562 16.25 14 16.25C14.7969 16.25 15.5 15.8281 15.9219 15.125C16.3438 14.4688 16.3438 13.5781 15.9219 12.875C15.5 12.2188 14.7969 11.75 14 11.75ZM14 18.5C12.3594 18.5 10.9062 17.6562 10.0625 16.25C9.26562 14.8906 9.26562 13.1562 10.0625 11.75C10.9062 10.3906 12.3594 9.5 14 9.5C15.5938 9.5 17.0469 10.3906 17.8906 11.75C18.6875 13.1562 18.6875 14.8906 17.8906 16.25C17.0469 17.6562 15.5938 18.5 14 18.5ZM2 14C2 13.3906 2.46875 12.875 3.125 12.875H6.125C6.73438 12.875 7.25 13.3906 7.25 14C7.25 14.6562 6.73438 15.125 6.125 15.125H3.125C2.46875 15.125 2 14.6562 2 14ZM21.875 12.875H24.875C25.4844 12.875 26 13.3906 26 14C26 14.6562 25.4844 15.125 24.875 15.125H21.875C21.2188 15.125 20.75 14.6562 20.75 14C20.75 13.3906 21.2188 12.875 21.875 12.875ZM14 26C13.3438 26 12.875 25.5312 12.875 24.875V21.875C12.875 21.2656 13.3438 20.75 14 20.75C14.6094 20.75 15.125 21.2656 15.125 21.875V24.875C15.125 25.5312 14.6094 26 14 26ZM5.51562 5.51562C5.9375 5.09375 6.64062 5.09375 7.0625 5.51562L9.21875 7.67188C9.64062 8.09375 9.64062 8.79688 9.21875 9.26562C8.75 9.6875 8.04688 9.6875 7.625 9.26562L5.51562 7.10938C5.04688 6.6875 5.04688 5.98438 5.51562 5.51562ZM20.3281 18.7812L22.4844 20.9375C22.9062 21.3594 22.9062 22.0625 22.4844 22.4844C22.0156 22.9531 21.3125 22.9531 20.8906 22.4844L18.7344 20.375C18.3125 19.9531 18.3125 19.25 18.7344 18.7812C19.2031 18.3594 19.9062 18.3594 20.3281 18.7812ZM5.51562 22.4844C5.04688 22.0625 5.04688 21.3594 5.51562 20.9375L7.625 18.7812C8.04688 18.3594 8.75 18.3594 9.21875 18.7812C9.64062 19.25 9.64062 19.9531 9.21875 20.375L7.0625 22.4844C6.64062 22.9531 5.9375 22.9531 5.51562 22.4844ZM18.7344 7.67188L20.8906 5.51562C21.3125 5.09375 22.0156 5.09375 22.4844 5.51562C22.9062 5.98438 22.9062 6.6875 22.4844 7.10938L20.3281 9.26562C19.9062 9.6875 19.2031 9.6875 18.7344 9.26562C18.3125 8.79688 18.3125 8.09375 18.7344 7.67188Z" fill="#414141"/>
</svg>
