<svg width="28" height="28" viewBox="0 0 28 28" fill="none" xmlns="http://www.w3.org/2000/svg">
<path d="M20.1387 10.1387L16.0371 14.2402L20.1387 18.3809C20.6465 18.8496 20.6465 19.6699 20.1387 20.1387C19.6699 20.6465 18.8496 20.6465 18.3809 20.1387L14.2793 16.0371L10.1387 20.1387C9.66992 20.6465 8.84961 20.6465 8.38086 20.1387C7.87305 19.6699 7.87305 18.8496 8.38086 18.3809L12.4824 14.2402L8.38086 10.1387C7.87305 9.66992 7.87305 8.84961 8.38086 8.38086C8.84961 7.87305 9.66992 7.87305 10.1387 8.38086L14.2793 12.4824L18.3809 8.38086C18.8496 7.87305 19.6699 7.87305 20.1387 8.38086C20.6465 8.84961 20.6465 9.66992 20.1387 10.1387Z" fill="white"/>
</svg>
