<svg width="89" height="21" viewBox="0 0 89 21" fill="none" xmlns="http://www.w3.org/2000/svg">
<path fill-rule="evenodd" clip-rule="evenodd" d="M27.2247 6.68902L24.9199 12.4328H28.1094L27.2351 6.66565L27.2247 6.68902ZM15.0149 19.8745L24.4691 0.408741H31.6172L35.6032 19.8745H29.3281L28.8656 17.28H22.7775L21.377 19.8745H15.0149ZM38.5744 19.8745L41.3131 0.408741H47.6363L44.8989 19.8745H38.5744ZM80.6305 6.66565L78.3167 12.4328H81.5049L80.6305 6.66565ZM68.4103 19.8745L77.8658 0.408741H85.0127L88.9999 19.8745H82.7235L82.2623 17.28H76.173L74.7725 19.8745H68.4103Z" fill="white"/>
<path fill-rule="evenodd" clip-rule="evenodd" d="M54.4314 10.7723H62.3552L67.7845 19.764H59.8594L54.4314 10.7723Z" fill="white"/>
<path fill-rule="evenodd" clip-rule="evenodd" d="M55.2549 9.39136H63.445L70.5581 0.437328H62.368L55.2549 9.39136Z" fill="#F6822A"/>
<path fill-rule="evenodd" clip-rule="evenodd" d="M47.0662 19.8187H55.2549L62.368 10.7556H54.1779L47.0662 19.8187Z" fill="#F6822A"/>
<path fill-rule="evenodd" clip-rule="evenodd" d="M50.019 0.328201H57.6622L62.8992 9.39136H55.2548L50.019 0.328201Z" fill="white"/>
<path fill-rule="evenodd" clip-rule="evenodd" d="M15.2021 1.10516L14.5941 6.83071C12.2635 3.61521 6.8617 5.83422 6.43751 9.83962C5.89848 14.9234 11.0973 16.1082 13.9263 13.1149L13.317 18.8534C12.4726 19.2678 11.6469 19.5901 10.8319 19.807C10.0213 20.0253 9.20894 20.1409 8.40293 20.1578C7.38956 20.1799 6.47142 20.0733 5.64422 19.8408C4.81703 19.6121 4.06844 19.2484 3.40611 18.7573C2.12874 17.8231 1.20515 16.6357 0.636233 15.191C0.0673174 13.7411 -0.119896 12.1054 0.0739429 10.2774C0.230236 8.80806 0.600249 7.4686 1.18995 6.25386C1.77459 5.04041 2.5845 3.9361 3.6158 2.93572C4.59071 1.98211 5.65241 1.26237 6.80128 0.77388C7.94574 0.289282 9.19466 0.0307331 10.5446 0.00215149C11.3511 -0.0147381 12.1423 0.0658188 12.9101 0.251602C13.6821 0.436087 14.4434 0.724501 15.2021 1.10516Z" fill="white"/>
</svg>
